<!-- Generated by IcoMoon.io -->
<svg version="1.1" xmlns="http://www.w3.org/2000/svg" width="38" height="32" viewBox="0 0 38 32">
<title>envelope</title>
<path d="M29.6 0h-20.8c-1.323 0-2.4 1.077-2.4 2.4v14.4c0 1.323 1.077 2.4 2.4 2.4h20.8c1.323 0 2.4-1.077 2.4-2.4v-14.4c0-1.323-1.077-2.4-2.4-2.4zM29.6 1.6c0.109 0 0.212 0.023 0.307 0.062l-10.707 9.28-10.707-9.28c0.095-0.039 0.198-0.062 0.307-0.062h20.8zM29.6 17.6h-20.8c-0.441 0-0.8-0.359-0.8-0.8v-13.448l10.676 9.252c0.151 0.13 0.337 0.195 0.524 0.195s0.373-0.065 0.524-0.195l10.676-9.252v13.448c0 0.441-0.359 0.8-0.8 0.8z"></path>
</svg>
